# xmcd
#
# Track frame offsets: 
#        150
#        21190
#        50345
#        85177
#        133044
#        149224
#        165666
#        196531
#
# Disc length: 3350 seconds
#
# Revision: 1
# Processed by: cddbd v1.5.2PL0 Copyright (c) Steve Scherf et al.
# Submitted via: ExactAudioCopy v1.0b3
#
DISCID=690d1408
DTITLE=Deborah Coleman - Soul Be It
DYEAR=2002
DGENRE=Blues
TTITLE0=Brick
TTITLE1=My Heart Bleeds Blue
TTITLE2=Don't Lie To Me
TTITLE3=I'm A Woman
TTITLE4=You're With Me
TTITLE5=I Believe
TTITLE6=The Dream
TTITLE7=Goodbye Misery
EXTD=
EXTT0=
EXTT1=
EXTT2=
EXTT3=
EXTT4=
EXTT5=
EXTT6=
EXTT7=
PLAYORDER=
